<svg width="32" height="32" viewBox="0 0 32 32" fill="none" xmlns="http://www.w3.org/2000/svg">
<path fill-rule="evenodd" clip-rule="evenodd" d="M2.58335 13.9447C1.5248 13.9447 0.666687 14.8028 0.666687 15.8614C0.666687 16.9199 1.5248 17.778 2.58335 17.778H14.2216V29.4163C14.2216 30.4749 15.0798 31.333 16.1383 31.333C17.1969 31.333 18.055 30.4749 18.055 29.4163V17.778H29.6932C30.7518 17.778 31.6099 16.9199 31.6099 15.8614C31.6099 14.8028 30.7518 13.9447 29.6932 13.9447H18.055V2.30632C18.055 1.24794 17.1969 0.389658 16.1383 0.389658C15.0798 0.389658 14.2216 1.24794 14.2216 2.30632V13.9447H2.58335Z" fill="#F1F1F1"/>
</svg>
